<?xml version="1.0" encoding="UTF-8"?>
<svg id="Calque_1" xmlns="http://www.w3.org/2000/svg" version="1.1" viewBox="0 0 197.38 36.53">
  <!-- Generator: Adobe Illustrator 30.5.1, SVG Export Plug-In . SVG Version: 2.1.4 Build 3)  -->
  <defs>
    <style>
      .st0 {
        fill: #fff;
      }
    </style>
  </defs>
  <path class="st0" d="M38.3,31.72c.14.07.19.19.15.38-.73,1.41-1.48,2.46-2.24,3.14-.77.68-1.8,1.02-3.09,1.02-1.7,0-2.96-.55-3.79-1.64-.83-1.09-1.38-2.41-1.67-3.96l-2.06-12.43c-.16,3-.89,5.91-2.18,8.71-1.29,2.8-3.06,5.09-5.3,6.86s-4.8,2.66-7.67,2.66c-2.22,0-4.06-.65-5.51-1.95-1.45-1.3-2.18-3.04-2.18-5.22,0-1.5.52-2.81,1.55-3.93,1.03-1.11,2.28-2.06,3.76-2.83,1.47-.77,3.46-1.68,5.97-2.73,2.38-.96,4.27-1.79,5.67-2.49,1.39-.71,2.55-1.57,3.48-2.59.93-1.02,1.35-2.22,1.27-3.58-.61-3.19-1.59-5.67-2.94-7.44-1.35-1.78-2.86-2.66-4.51-2.66-4.08,0-7.38,1.59-9.91,4.78-2.53,3.19-4.72,7.85-6.58,14-.08.14-.16.21-.24.21-.12,0-.2-.04-.24-.14-.04-.09-.04-.18,0-.27,1.37-4.42,2.83-8.01,4.36-10.79,1.54-2.78,3.39-4.88,5.58-6.32C12.15,1.06,14.78.34,17.85.34s5.52.77,7.48,2.32c1.96,1.55,3.3,4.6,4.03,9.15l3.03,19.19c.16,1.09.44,2.03.85,2.8.4.77.91,1.16,1.52,1.16.65,0,1.18-.25,1.61-.75s.96-1.3,1.61-2.39c.08-.14.19-.17.33-.1ZM19.69,31.41c1.68-1.78,3.02-4.06,4.03-6.86,1.01-2.8,1.51-5.68,1.51-8.64l-.48-2.87c-.36,1.27-1.17,2.36-2.42,3.24-1.25.89-3.01,1.85-5.27,2.9-2.02.96-3.63,1.8-4.82,2.53-1.19.73-2.2,1.66-3.03,2.8-.83,1.14-1.24,2.5-1.24,4.1,0,1.68.58,3.02,1.76,4,1.17.98,2.69,1.47,4.54,1.47s3.75-.89,5.42-2.66Z"/>
  <path class="st0" d="M69.05,5.74c-1.54,1.78-2.81,3.63-3.82,5.56-1.01,1.94-1.68,3.39-2,4.37-.32.98-.73,2.29-1.21,3.93-.08.27-.22.38-.42.31-.2-.07-.26-.19-.18-.38.08-.27.37-1.19.88-2.77.5-1.57,1.22-3.27,2.15-5.09-.04-3.1-.41-5.42-1.12-6.96-.71-1.55-1.63-2.32-2.76-2.32-1.62,0-3.31,1.37-5.09,4.1-1.78,2.73-3.32,6.27-4.64,10.62-1.31,4.35-2.15,8.82-2.51,13.42.08,1.18.28,2.11.61,2.77.32.66.91,1.15,1.76,1.47.85.32,2.08.48,3.7.48.24,0,.36.08.36.24s-.12.24-.36.24c-1.82,0-3.37-.05-4.67-.14-.4-.05-1.01-.07-1.82-.07h-4.06c-.61,0-1.07.02-1.39.07-1.05.09-2.26.14-3.64.14-.16,0-.24-.08-.24-.24s.08-.24.24-.24c1.49,0,2.58-.23,3.24-.68.67-.45,1.08-1.15,1.24-2.08.16-.93.24-2.42.24-4.47v-13.86l-.06-2.05c-.08-2.69-.41-4.71-1-6.08-.59-1.37-1.61-2.05-3.06-2.05-.08-.04-.12-.14-.12-.27s.04-.23.12-.27c1.58-.32,3.17-.75,4.79-1.3,1.62-.55,2.85-1.09,3.7-1.64.12-.14.24-.14.36,0l-.06,11.74-.97,19.19h.42c.36-5.28,1.29-10.28,2.79-14.99,1.49-4.71,3.32-8.51,5.48-11.4,2.16-2.89,4.39-4.34,6.7-4.34,2.42,0,4.56,1.68,6.42,5.05Z"/>
  <path class="st0" d="M76.66,34.24c-2.32-1.52-4.18-3.6-5.58-6.21-1.39-2.62-2.09-5.45-2.09-8.5,0-3.64.81-6.95,2.42-9.93,1.62-2.98,3.81-5.33,6.58-7.03,2.77-1.71,5.79-2.56,9.06-2.56,2.83,0,5.37.81,7.64,2.42,2.26,1.62,4.04,3.78,5.33,6.49,1.29,2.71,1.94,5.61,1.94,8.71,0,3.6-.76,6.84-2.27,9.73-1.51,2.89-3.62,5.14-6.3,6.76-2.69,1.62-5.77,2.42-9.24,2.42-2.67,0-5.16-.76-7.48-2.29ZM93.41,33.22c1.45-1.07,2.58-2.53,3.36-4.37.79-1.84,1.18-3.86,1.18-6.04,0-3.19-.68-6.38-2.03-9.59-1.35-3.21-3.21-5.86-5.58-7.95-2.36-2.09-5-3.14-7.91-3.14-1.82,0-3.43.55-4.85,1.64-1.41,1.09-2.52,2.57-3.33,4.44-.81,1.87-1.21,3.94-1.21,6.21,0,3.14.73,6.29,2.18,9.46,1.45,3.16,3.37,5.78,5.76,7.85,2.38,2.07,4.89,3.11,7.51,3.11,1.82,0,3.45-.53,4.91-1.6Z"/>
  <path class="st0" d="M163.34,35.47c0,.16-.1.24-.3.24-1.37,0-2.59-.05-3.64-.14-.32-.05-.79-.07-1.39-.07h-4.18c-.61,0-1.07.02-1.39.07-1.05.09-2.26.14-3.64.14-.16,0-.24-.08-.24-.24s.08-.24.24-.24c1.58-.04,2.68-.31,3.3-.79.63-.48.94-1.31.94-2.49,0-.86-.16-2.14-.49-3.82l-2-11.61c-.85-4.82-1.72-8.41-2.61-10.75-.89-2.34-2.12-3.52-3.7-3.52-2.63,0-4.68,1.97-6.15,5.91-1.48,3.94-2.37,9.23-2.7,15.88l-.06,3.96c-.04,2.09.02,3.6.18,4.51.16.91.57,1.59,1.21,2.05.65.46,1.72.68,3.21.68.2,0,.3.08.3.24s-.1.24-.3.24c-1.37,0-2.59-.05-3.64-.14-.32-.05-.79-.07-1.39-.07h-3.94c-.61,0-1.07.02-1.39.07-1.05.09-2.26.14-3.64.14-.16,0-.24-.08-.24-.24s.08-.24.24-.24c1.49,0,2.58-.23,3.24-.68.67-.45,1.08-1.15,1.24-2.08.16-.93.24-2.42.24-4.47v-8.74c0-4.28-.08-7.49-.24-9.63-.16-2.14-.63-3.91-1.39-5.33-.77-1.41-2-2.12-3.7-2.12s-3.41,1.06-4.91,3.18c-1.5,2.12-2.8,5.31-3.91,9.59-1.11,4.28-1.91,9.58-2.39,15.91.08,1.64.44,2.76,1.09,3.38.65.61,1.86.92,3.64.92.2,0,.3.08.3.24s-.1.24-.3.24c-1.42.04-2.67.02-3.76-.07-.28-.05-.71-.07-1.27-.07h-4.12c-.61,0-1.07.02-1.39.07-1.05.09-2.26.14-3.64.14-.16,0-.24-.08-.24-.24s.08-.24.24-.24c1.49,0,2.58-.23,3.24-.68.67-.45,1.08-1.15,1.24-2.08.16-.93.24-2.42.24-4.47v-15.91c0-2.64-.31-4.65-.94-6.04-.63-1.39-1.67-2.08-3.12-2.08-.08-.04-.12-.14-.12-.27s.04-.23.12-.27c1.58-.32,3.17-.75,4.79-1.3,1.62-.55,2.85-1.09,3.7-1.64.12-.14.24-.14.36,0l-.06,11.68-.97,19.25h.42c.77-11.02,2.39-18.95,4.88-23.8,2.49-4.85,5.38-7.27,8.7-7.27,1.82,0,3.34.44,4.58,1.33,1.23.89,2.19,2.56,2.88,5.02.69,2.46.99,5.9.91,10.31v.14c.61-5.05,1.77-9.12,3.49-12.19,1.72-3.07,3.93-4.61,6.63-4.61,1.98,0,3.57.59,4.76,1.77,1.19,1.18,2.14,2.85,2.85,4.98.71,2.14,1.36,4.98,1.97,8.53l2.12,12.5c.36,2.14.69,3.63.97,4.47.28.84.77,1.49,1.45,1.95.69.46,1.78.68,3.27.68.2,0,.3.08.3.24ZM114.02,28c0,.77.02,1.32.06,1.64l-.06-1.64Z"/>
  <path class="st0" d="M197.25,19.15c.14.07.17.22.09.44-1.66,5.14-4.03,9.2-7.12,12.15-3.09,2.96-6.76,4.44-11,4.44-2.91,0-5.53-.74-7.85-2.22-2.32-1.48-4.15-3.49-5.48-6.04-1.33-2.55-2-5.35-2-8.4,0-3.46.63-6.65,1.88-9.56,1.25-2.91,3.07-5.23,5.45-6.96,2.38-1.73,5.23-2.59,8.54-2.59,2.14,0,4.13.32,5.97.96,1.84.64,3.31,1.53,4.42,2.66,1.11,1.14,1.67,2.44,1.67,3.89,0,1.87-.56,3.33-1.67,4.4-1.11,1.07-2.48,1.86-4.09,2.36-1.62.5-3.74,1-6.36,1.5-1.94.36-3.35.66-4.24.89-1.98.55-3.46,1.25-4.45,2.12-.99.87-1.4,2.09-1.24,3.69.93,3.05,2.48,5.55,4.67,7.51,2.18,1.96,4.97,2.94,8.36,2.94,3.19,0,6-1.29,8.42-3.86,2.42-2.57,4.3-5.93,5.64-10.07.12-.23.25-.31.39-.24ZM174.19,2.77c-1.66,1.16-2.97,2.9-3.94,5.22-.97,2.32-1.45,5.14-1.45,8.47,0,1.55.18,3.14.54,4.78.2-1.27.83-2.26,1.88-2.97,1.05-.71,2.44-1.31,4.18-1.81l2.18-.55c1.98-.45,3.58-.92,4.82-1.4,1.23-.48,2.26-1.22,3.09-2.22.83-1,1.24-2.39,1.24-4.17,0-2.05-.55-3.74-1.64-5.09-1.09-1.34-2.87-2.01-5.33-2.01-2.06,0-3.92.58-5.58,1.74Z"/>
</svg>