<svg xmlns="http://www.w3.org/2000/svg" viewBox="0 0 64 64">
  <rect width="64" height="64" rx="14" fill="#0a0a0a"/>
  <g transform="translate(7.81,10.29) scale(1.18)">
    <path fill="#ededed" d="M38.3,31.72c.14.07.19.19.15.38-.73,1.41-1.48,2.46-2.24,3.14-.77.68-1.8,1.02-3.09,1.02-1.7,0-2.96-.55-3.79-1.64-.83-1.09-1.38-2.41-1.67-3.96l-2.06-12.43c-.16,3-.89,5.91-2.18,8.71-1.29,2.8-3.06,5.09-5.3,6.86s-4.8,2.66-7.67,2.66c-2.22,0-4.06-.65-5.51-1.95-1.45-1.3-2.18-3.04-2.18-5.22,0-1.5.52-2.81,1.55-3.93,1.03-1.11,2.28-2.06,3.76-2.83,1.47-.77,3.46-1.68,5.97-2.73,2.38-.96,4.27-1.79,5.67-2.49,1.39-.71,2.55-1.57,3.48-2.59.93-1.02,1.35-2.22,1.27-3.58-.61-3.19-1.59-5.67-2.94-7.44-1.35-1.78-2.86-2.66-4.51-2.66-4.08,0-7.38,1.59-9.91,4.78-2.53,3.19-4.72,7.85-6.58,14-.08.14-.16.21-.24.21-.12,0-.2-.04-.24-.14-.04-.09-.04-.18,0-.27,1.37-4.42,2.83-8.01,4.36-10.79,1.54-2.78,3.39-4.88,5.58-6.32C12.15,1.06,14.78.34,17.85.34s5.52.77,7.48,2.32c1.96,1.55,3.3,4.6,4.03,9.15l3.03,19.19c.16,1.09.44,2.03.85,2.8.4.77.91,1.16,1.52,1.16.65,0,1.18-.25,1.61-.75s.96-1.3,1.61-2.39c.08-.14.19-.17.33-.1ZM19.69,31.41c1.68-1.78,3.02-4.06,4.03-6.86,1.01-2.8,1.51-5.68,1.51-8.64l-.48-2.87c-.36,1.27-1.17,2.36-2.42,3.24-1.25.89-3.01,1.85-5.27,2.9-2.02.96-3.63,1.8-4.82,2.53-1.19.73-2.2,1.66-3.03,2.8-.83,1.14-1.24,2.5-1.24,4.1,0,1.68.58,3.02,1.76,4,1.17.98,2.69,1.47,4.54,1.47s3.75-.89,5.42-2.66Z"/>
  </g>
</svg>